<?xml version="1.0" encoding="UTF-8" standalone="no"?>
<!-- Created with Inkscape (http://www.inkscape.org/) -->

<svg
   xmlns:dc="http://purl.org/dc/elements/1.1/"
   xmlns:cc="http://creativecommons.org/ns#"
   xmlns:rdf="http://www.w3.org/1999/02/22-rdf-syntax-ns#"
   xmlns:svg="http://www.w3.org/2000/svg"
   xmlns="http://www.w3.org/2000/svg"
   xmlns:sodipodi="http://sodipodi.sourceforge.net/DTD/sodipodi-0.dtd"
   xmlns:inkscape="http://www.inkscape.org/namespaces/inkscape"
   width="921.25983"
   height="531.49603"
   id="svg3007"
   version="1.1"
   inkscape:version="0.48.2 r9819"
   sodipodi:docname="foof.svg">
  <defs
     id="defs3" />
  <sodipodi:namedview
     inkscape:document-units="mm"
     id="base"
     pagecolor="#ffffff"
     bordercolor="#666666"
     borderopacity="1.0"
     inkscape:pageopacity="0.0"
     inkscape:pageshadow="2"
     inkscape:zoom="0.5"
     inkscape:cx="790.65099"
     inkscape:cy="149.43969"
     inkscape:current-layer="layer1"
     showgrid="false"
     inkscape:window-width="1366"
     inkscape:window-height="743"
     inkscape:window-x="0"
     inkscape:window-y="-4"
     inkscape:window-maximized="1"
     units="mm"
     fit-margin-left="1"
     fit-margin-top="1"
     fit-margin-bottom="1"
     fit-margin-right="1" />
  <metadata
     id="metadata4">
    <rdf:RDF>
      <cc:Work
         rdf:about="">
        <dc:format>image/svg+xml</dc:format>
        <dc:type
           rdf:resource="http://purl.org/dc/dcmitype/StillImage" />
        <dc:title />
      </cc:Work>
    </rdf:RDF>
  </metadata>
  <g
     inkscape:label="Layer 1"
     inkscape:groupmode="layer"
     id="layer1"
     transform="translate(-312.89318,11.095864)">
    <g
       id="g3008"
       transform="matrix(18.498184,0,0,18.498184,-5537.9764,-9043.1173)">
      <rect
         transform="matrix(0.75776879,0.65252315,-0.65252315,0.75776879,0,0)"
         y="146.88074"
         x="593.59772"
         height="7.5951133"
         width="4.0209422"
         id="rect3815-7"
         style="fill:#ff7f00;fill-opacity:1;stroke:#000300;stroke-width:0;stroke-linejoin:round;stroke-miterlimit:4;stroke-opacity:1;stroke-dasharray:none;stroke-dashoffset:0" />
      <path
         transform="translate(283.20416,393.55013)"
         d="m 60.090752,102.64572 c 0,4.25635 -3.450455,7.70681 -7.706807,7.70681 -4.256351,0 -7.706806,-3.45046 -7.706806,-7.70681 0,-4.25635 3.450455,-7.706805 7.706806,-7.706805 4.256352,0 7.706807,3.450455 7.706807,7.706805 z"
         sodipodi:ry="7.7068062"
         sodipodi:rx="7.7068062"
         sodipodi:cy="102.64572"
         sodipodi:cx="52.383945"
         id="path3013"
         style="fill:#333333;fill-opacity:1;stroke:#000300;stroke-width:0;stroke-linejoin:round;stroke-miterlimit:4;stroke-opacity:1;stroke-dasharray:none;stroke-dashoffset:0"
         sodipodi:type="arc" />
      <path
         d="m 60.090752,102.64572 c 0,4.25635 -3.450455,7.70681 -7.706807,7.70681 -4.256351,0 -7.706806,-3.45046 -7.706806,-7.70681 0,-4.25635 3.450455,-7.706805 7.706806,-7.706805 4.256352,0 7.706807,3.450455 7.706807,7.706805 z"
         sodipodi:ry="7.7068062"
         sodipodi:rx="7.7068062"
         sodipodi:cy="102.64572"
         sodipodi:cx="52.383945"
         id="path3013-4"
         style="fill:#333333;fill-opacity:1;stroke:#000300;stroke-width:0;stroke-linejoin:round;stroke-miterlimit:4;stroke-opacity:1;stroke-dasharray:none;stroke-dashoffset:0"
         sodipodi:type="arc"
         transform="translate(294.59684,406.45065)" />
      <path
         d="m 60.090752,102.64572 c 0,4.25635 -3.450455,7.70681 -7.706807,7.70681 -4.256351,0 -7.706806,-3.45046 -7.706806,-7.70681 0,-4.25635 3.450455,-7.706805 7.706806,-7.706805 4.256352,0 7.706807,3.450455 7.706807,7.706805 z"
         sodipodi:ry="7.7068062"
         sodipodi:rx="7.7068062"
         sodipodi:cy="102.64572"
         sodipodi:cx="52.383945"
         id="path3013-6"
         style="fill:#333333;fill-opacity:1;stroke:#000300;stroke-width:0;stroke-linejoin:round;stroke-miterlimit:4;stroke-opacity:1;stroke-dasharray:none;stroke-dashoffset:0"
         sodipodi:type="arc"
         transform="translate(271.81149,406.45065)" />
      <path
         d="m 60.090752,102.64572 c 0,4.25635 -3.450455,7.70681 -7.706807,7.70681 -4.256351,0 -7.706806,-3.45046 -7.706806,-7.70681 0,-4.25635 3.450455,-7.706805 7.706806,-7.706805 4.256352,0 7.706807,3.450455 7.706807,7.706805 z"
         sodipodi:ry="7.7068062"
         sodipodi:rx="7.7068062"
         sodipodi:cy="102.64572"
         sodipodi:cx="52.383945"
         id="path3013-2"
         style="fill:#333333;fill-opacity:1;stroke:#000300;stroke-width:0;stroke-linejoin:round;stroke-miterlimit:4;stroke-opacity:1;stroke-dasharray:none;stroke-dashoffset:0"
         sodipodi:type="arc"
         transform="translate(305.9895,393.55013)" />
      <rect
         transform="matrix(0.77819778,-0.62801928,0.62801928,0.77819778,0,0)"
         y="601.83484"
         x="-52.208981"
         height="7.5951133"
         width="4.0209422"
         id="rect3815-9"
         style="fill:#333333;fill-opacity:1;stroke:#000300;stroke-width:0;stroke-linejoin:round;stroke-miterlimit:4;stroke-opacity:1;stroke-dasharray:none;stroke-dashoffset:0" />
      <rect
         transform="matrix(0.76675766,0.64193667,-0.64193667,0.76675766,0,0)"
         y="170.19469"
         x="573.46301"
         height="7.5951133"
         width="4.0209422"
         id="rect3815-3"
         style="fill:#333333;fill-opacity:1;stroke:#000300;stroke-width:0;stroke-linejoin:round;stroke-miterlimit:4;stroke-opacity:1;stroke-dasharray:none;stroke-dashoffset:0" />
    </g>
  </g>
</svg>
