<?xml version="1.0" encoding="UTF-8" standalone="no"?>
<svg
   xmlns:dc="http://purl.org/dc/elements/1.1/"
   xmlns:cc="http://creativecommons.org/ns#"
   xmlns:rdf="http://www.w3.org/1999/02/22-rdf-syntax-ns#"
   xmlns:svg="http://www.w3.org/2000/svg"
   xmlns="http://www.w3.org/2000/svg"
   xmlns:sodipodi="http://sodipodi.sourceforge.net/DTD/sodipodi-0.dtd"
   xmlns:inkscape="http://www.inkscape.org/namespaces/inkscape"
   width="108.54867"
   height="123.97411"
   id="svg2"
   version="1.1"
   inkscape:version="0.48.2 r9819"
   sodipodi:docname="flask1c.svg">
  <defs
     id="defs20" />
  <sodipodi:namedview
     pagecolor="#ffffff"
     bordercolor="#666666"
     borderopacity="1"
     objecttolerance="10"
     gridtolerance="10"
     guidetolerance="10"
     inkscape:pageopacity="0"
     inkscape:pageshadow="2"
     inkscape:window-width="1360"
     inkscape:window-height="743"
     id="namedview18"
     showgrid="false"
     inkscape:zoom="4.4765625"
     inkscape:cx="22.018229"
     inkscape:cy="65.681152"
     inkscape:window-x="0"
     inkscape:window-y="-4"
     inkscape:window-maximized="1"
     inkscape:current-layer="svg2"
     fit-margin-left="1"
     fit-margin-top="1"
     fit-margin-bottom="1"
     fit-margin-right="1" />
  <metadata
     id="metadata3298">image/svg+xml<rdf:RDF>
  <cc:Work
     rdf:about="">
    <dc:format>image/svg+xml</dc:format>
    <dc:type
       rdf:resource="http://purl.org/dc/dcmitype/StillImage" />
    <dc:title />
  </cc:Work>
</rdf:RDF>
</metadata>
  <path
     d="M 25.812407,66.565883 7.1081042,97.489084 c -8.1947598,10.167796 -2.549459,24.633666 15.6734698,23.128906 0.946842,-0.0782 61.506493,-0.24347 61.506493,-0.24347 24.565233,0.89935 23.405303,-16.7852 16.623383,-25.076595 L 81.844904,66.565883 z"
     id="path3997"
     inkscape:connector-curvature="0"
     style="fill:#ff7f00;fill-rule:evenodd;stroke-width:1px"
     sodipodi:nodetypes="ccccccc" />
  <path
     style="fill:#f9f9f9;fill-opacity:0.15686275000000000;stroke:#000000;stroke-width:0;stroke-linecap:butt;stroke-linejoin:miter;stroke-miterlimit:4;stroke-opacity:1;stroke-dasharray:none"
     d="m 35.898603,117.7865 c 17.737927,3.156 -26.8062828,0 -26.8062828,0 L 2.3907492,109.29785 37.591474,50.086717 C 38.012903,18.893393 34.767356,6.1701489 38.10771,5.0835376 48.914643,1.5680613 48.297028,4.5570212 47.909225,49.521998 29.461084,79.4263 5.6755042,112.11143 35.898603,117.7865 z"
     id="path3000"
     inkscape:connector-curvature="0"
     sodipodi:nodetypes="ccccscc" />
  <path
     d="m 33.586907,4.020302 c 6.533401,6.414902 5.547302,11.264404 5.618301,19.029205 l 0.2243,24.521297 L 7.6067082,95.240806 C -0.09439282,108.0802 5.1154072,120.642 17.746606,119.9002 l 73.043702,0.0739 c 13.653002,-0.0575 18.638002,-12.70899 8.057,-26.039925 L 68.661109,47.689403 68.093009,23.128807 C 68.022009,15.364006 66.94731,10.533401 73.362304,4 L 33.586906,4.020302 z"
     id="rect3162"
     stroke-miterlimit="4"
     inkscape:connector-curvature="0"
     style="fill:none;stroke:#333333;stroke-width:6;stroke-linecap:round;stroke-linejoin:round;stroke-miterlimit:4;stroke-dashoffset:0;marker-start:none;marker-mid:none;marker-end:none" />
  <path
     d="m 67.885381,24.120031 -10.905266,0"
     id="path3180"
     stroke-miterlimit="4"
     inkscape:connector-curvature="0"
     style="fill:none;stroke:#333333;stroke-width:6;stroke-linecap:round;stroke-miterlimit:4" />
  <path
     id="path3182"
     d="m 67.885381,40.96687 -10.905266,0"
     stroke-miterlimit="4"
     inkscape:connector-curvature="0"
     style="fill:none;stroke:#333333;stroke-width:6;stroke-linecap:round;stroke-miterlimit:4" />
  <path
     d="m 74.567846,57.813713 -10.905266,0"
     id="path3184"
     stroke-miterlimit="4"
     inkscape:connector-curvature="0"
     style="fill:none;stroke:#333333;stroke-width:6;stroke-linecap:round;stroke-miterlimit:4" />
  <path
     id="path3186"
     d="m 85.321886,74.660545 -10.905266,0"
     stroke-miterlimit="4"
     inkscape:connector-curvature="0"
     style="fill:none;stroke:#333333;stroke-width:6;stroke-linecap:round;stroke-miterlimit:4" />
  <path
     d="m 95.969478,91.507381 -10.905283,0"
     id="path3188"
     stroke-miterlimit="4"
     inkscape:connector-curvature="0"
     style="fill:none;stroke:#333333;stroke-width:6;stroke-linecap:round;stroke-miterlimit:4" />
  <g
     id="g3789"
     transform="translate(-7.7151941,-7.3094812)">
    <path
       transform="translate(3.9092497,-7.7626512)"
       d="m 60.090752,102.64572 c 0,4.25635 -3.450455,7.70681 -7.706807,7.70681 -4.256351,0 -7.706806,-3.45046 -7.706806,-7.70681 0,-4.25635 3.450455,-7.706805 7.706806,-7.706805 4.256352,0 7.706807,3.450455 7.706807,7.706805 z"
       sodipodi:ry="7.7068062"
       sodipodi:rx="7.7068062"
       sodipodi:cy="102.64572"
       sodipodi:cx="52.383945"
       id="path3013"
       style="fill:#333333;fill-opacity:1;stroke:#000300;stroke-width:0;stroke-linejoin:round;stroke-miterlimit:4;stroke-opacity:1;stroke-dasharray:none;stroke-dashoffset:0"
       sodipodi:type="arc" />
    <path
       d="m 60.090752,102.64572 c 0,4.25635 -3.450455,7.70681 -7.706807,7.70681 -4.256351,0 -7.706806,-3.45046 -7.706806,-7.70681 0,-4.25635 3.450455,-7.706805 7.706806,-7.706805 4.256352,0 7.706807,3.450455 7.706807,7.706805 z"
       sodipodi:ry="7.7068062"
       sodipodi:rx="7.7068062"
       sodipodi:cy="102.64572"
       sodipodi:cx="52.383945"
       id="path3013-4"
       style="fill:#333333;fill-opacity:1;stroke:#000300;stroke-width:0;stroke-linejoin:round;stroke-miterlimit:4;stroke-opacity:1;stroke-dasharray:none;stroke-dashoffset:0"
       sodipodi:type="arc"
       transform="translate(15.301923,5.1378736)" />
    <path
       d="m 60.090752,102.64572 c 0,4.25635 -3.450455,7.70681 -7.706807,7.70681 -4.256351,0 -7.706806,-3.45046 -7.706806,-7.70681 0,-4.25635 3.450455,-7.706805 7.706806,-7.706805 4.256352,0 7.706807,3.450455 7.706807,7.706805 z"
       sodipodi:ry="7.7068062"
       sodipodi:rx="7.7068062"
       sodipodi:cy="102.64572"
       sodipodi:cx="52.383945"
       id="path3013-6"
       style="fill:#333333;fill-opacity:1;stroke:#000300;stroke-width:0;stroke-linejoin:round;stroke-miterlimit:4;stroke-opacity:1;stroke-dasharray:none;stroke-dashoffset:0"
       sodipodi:type="arc"
       transform="translate(-7.4834219,5.1378736)" />
    <path
       d="m 60.090752,102.64572 c 0,4.25635 -3.450455,7.70681 -7.706807,7.70681 -4.256351,0 -7.706806,-3.45046 -7.706806,-7.70681 0,-4.25635 3.450455,-7.706805 7.706806,-7.706805 4.256352,0 7.706807,3.450455 7.706807,7.706805 z"
       sodipodi:ry="7.7068062"
       sodipodi:rx="7.7068062"
       sodipodi:cy="102.64572"
       sodipodi:cx="52.383945"
       id="path3013-2"
       style="fill:#333333;fill-opacity:1;stroke:#000300;stroke-width:0;stroke-linejoin:round;stroke-miterlimit:4;stroke-opacity:1;stroke-dasharray:none;stroke-dashoffset:0"
       sodipodi:type="arc"
       transform="translate(26.694588,-7.7626512)" />
    <rect
       transform="matrix(0.77819778,-0.62801928,0.62801928,0.77819778,0,0)"
       y="114.13153"
       x="-17.523508"
       height="7.5951133"
       width="4.0209422"
       id="rect3815-9"
       style="fill:#333333;fill-opacity:1;stroke:#000300;stroke-width:0;stroke-linejoin:round;stroke-miterlimit:4;stroke-opacity:1;stroke-dasharray:none;stroke-dashoffset:0" />
    <rect
       transform="matrix(0.76675766,0.64193667,-0.64193667,0.76675766,0,0)"
       y="41.774693"
       x="101.69411"
       height="7.5951133"
       width="4.0209422"
       id="rect3815-3"
       style="fill:#333333;fill-opacity:1;stroke:#000300;stroke-width:0;stroke-linejoin:round;stroke-miterlimit:4;stroke-opacity:1;stroke-dasharray:none;stroke-dashoffset:0" />
    <rect
       transform="matrix(0.75776879,0.65252315,-0.65252315,0.75776879,0,0)"
       y="25.024841"
       x="120.09084"
       height="7.5951133"
       width="4.0209422"
       id="rect3815-7"
       style="fill:#333333;fill-opacity:1;stroke:#000300;stroke-width:0;stroke-linejoin:round;stroke-miterlimit:4;stroke-opacity:1;stroke-dasharray:none;stroke-dashoffset:0" />
  </g>
</svg>
