<?xml version="1.0" encoding="UTF-8" standalone="no"?>
<svg
   xmlns:dc="http://purl.org/dc/elements/1.1/"
   xmlns:cc="http://creativecommons.org/ns#"
   xmlns:rdf="http://www.w3.org/1999/02/22-rdf-syntax-ns#"
   xmlns:svg="http://www.w3.org/2000/svg"
   xmlns="http://www.w3.org/2000/svg"
   xmlns:sodipodi="http://sodipodi.sourceforge.net/DTD/sodipodi-0.dtd"
   xmlns:inkscape="http://www.inkscape.org/namespaces/inkscape"
   width="277.49649"
   height="112.16566"
   id="svg2"
   version="1.1"
   inkscape:version="0.48.2 r9819"
   sodipodi:docname="logo1.svg">
  <defs
     id="defs20" />
  <sodipodi:namedview
     pagecolor="#ffffff"
     bordercolor="#666666"
     borderopacity="1"
     objecttolerance="10"
     gridtolerance="10"
     guidetolerance="10"
     inkscape:pageopacity="0"
     inkscape:pageshadow="2"
     inkscape:window-width="1360"
     inkscape:window-height="743"
     id="namedview18"
     showgrid="false"
     inkscape:zoom="4.180233"
     inkscape:cx="138.74825"
     inkscape:cy="56.082829"
     inkscape:window-x="0"
     inkscape:window-y="-4"
     inkscape:window-maximized="1"
     inkscape:current-layer="svg2"
     fit-margin-left="1"
     fit-margin-top="1"
     fit-margin-bottom="1"
     fit-margin-right="1" />
  <metadata
     id="metadata3298">image/svg+xml<rdf:RDF>
  <cc:Work
     rdf:about="">
    <dc:format>image/svg+xml</dc:format>
    <dc:type
       rdf:resource="http://purl.org/dc/dcmitype/StillImage" />
    <dc:title></dc:title>
  </cc:Work>
</rdf:RDF>
</metadata>
  <g
     id="g4356"
     inkscape:transform-center-x="-65.26195"
     inkscape:transform-center-y="-2.339138"
     transform="translate(131.15215,0.10280279)">
    <path
       sodipodi:nodetypes="ssssss"
       inkscape:connector-curvature="0"
       id="path3901"
       d="m 14.40314,57.594077 c 0,4.44141 -3.0004,8.04189 -6.7015703,8.04189 C 4.0003897,65.635967 1,62.035487 1,57.594077 1,53.152666 4.9905997,35.664856 11.35401,36.149056 c 5.87153,0.44677 -3.0190403,1.3249 -1.8062903,6.01929 1.2127403,4.69438 4.8554203,13.205031 4.8554203,15.425731 z"
       style="fill:#ff7f00;fill-opacity:1;stroke:#000300;stroke-width:0;stroke-linejoin:round;stroke-miterlimit:4;stroke-opacity:1;stroke-dashoffset:0" />
    <g
       transform="matrix(0.99910664,-0.04226024,0.04226024,0.99910664,9.4879451,-22.582267)"
       id="g3880">
      <path
         d="m 41.789004,75.851062 32.811792,50.690598 c 5.636843,11.56475 20.818314,12.26563 27.024294,-4.93074 0.32242,-0.89352 27.84907,-57.945258 27.84907,-57.945258 C 96.396021,62.215721 30.025772,59.745016 1.6035614,58.622462 z"
         id="path3997"
         inkscape:connector-curvature="0"
         style="fill:#ff7f00;fill-rule:evenodd;stroke-width:1px"
         sodipodi:nodetypes="cccccc" />
    </g>
    <path
       sodipodi:nodetypes="ccccscc"
       inkscape:connector-curvature="0"
       id="path3000"
       d="m 118.45617,81.403791 c 9.57809,-15.259577 -10.05346,24.849639 -10.05346,24.849639 L 98.020294,109.28225 56.33281,54.44427 C 27.574398,42.354819 13.288296,40.851954 13.81234,37.361709 c 1.647772,-10.974521 4.068905,-8.465421 46.527317,8.055405 20.802718,28.316923 41.520763,61.875336 58.116513,35.986677 z"
       style="fill:#f9f9f9;fill-opacity:0.15686275;stroke:#000000;stroke-width:0;stroke-linecap:butt;stroke-linejoin:miter;stroke-miterlimit:4;stroke-opacity:1;stroke-dasharray:none" />
    <path
       style="fill:none;stroke:#333333;stroke-width:6;stroke-linecap:round;stroke-linejoin:round;stroke-miterlimit:4;stroke-dashoffset:0;marker-start:none;marker-mid:none;marker-end:none"
       inkscape:connector-curvature="0"
       stroke-miterlimit="4"
       id="rect3162"
       d="m 12.126991,40.879731 c 8.396961,-3.650663 12.522661,-0.917778 19.747322,1.928526 l 22.815564,8.988569 32.255618,47.378215 c 9.013996,11.954289 22.612775,11.835949 26.662335,-0.15148 L 141.07074,31.33917 C 146.13788,18.661162 136.27942,9.295197 119.95322,14.104218 L 65.762875,24.743374 42.781942,16.058771 C 35.55728,13.212468 30.676214,12.397047 27.025584,4 L 12.126991,40.879732 z" />
    <path
       style="fill:none;stroke:#333333;stroke-width:6;stroke-linecap:round;stroke-miterlimit:4"
       inkscape:connector-curvature="0"
       stroke-miterlimit="4"
       id="path3180"
       d="M 43.622945,16.622993 39.533021,26.732264" />
    <path
       style="fill:none;stroke:#333333;stroke-width:6;stroke-linecap:round;stroke-miterlimit:4"
       inkscape:connector-curvature="0"
       stroke-miterlimit="4"
       d="m 59.240102,22.941253 -4.089924,10.10927"
       id="path3182" />
    <path
       style="fill:none;stroke:#333333;stroke-width:6;stroke-linecap:round;stroke-miterlimit:4"
       inkscape:connector-curvature="0"
       stroke-miterlimit="4"
       id="path3184"
       d="m 77.363463,23.064814 -4.089925,10.10927" />
    <path
       style="fill:none;stroke:#333333;stroke-width:6;stroke-linecap:round;stroke-miterlimit:4"
       inkscape:connector-curvature="0"
       stroke-miterlimit="4"
       d="M 97.013821,19.413988 92.923897,29.523259"
       id="path3186" />
    <path
       style="fill:none;stroke:#333333;stroke-width:6;stroke-linecap:round;stroke-miterlimit:4"
       inkscape:connector-curvature="0"
       stroke-miterlimit="4"
       id="path3188"
       d="m 116.62426,15.861842 -4.08993,10.109286" />
    <g
       transform="matrix(0.37504123,-0.92700814,0.92700814,0.37504123,-13.865801,74.917981)"
       id="g3789">
      <path
         sodipodi:type="arc"
         style="fill:#333333;fill-opacity:1;stroke:#000300;stroke-width:0;stroke-linejoin:round;stroke-miterlimit:4;stroke-opacity:1;stroke-dasharray:none;stroke-dashoffset:0"
         id="path3013"
         sodipodi:cx="52.383945"
         sodipodi:cy="102.64572"
         sodipodi:rx="7.7068062"
         sodipodi:ry="7.7068062"
         d="m 60.090752,102.64572 c 0,4.25635 -3.450455,7.70681 -7.706807,7.70681 -4.256351,0 -7.706806,-3.45046 -7.706806,-7.70681 0,-4.25635 3.450455,-7.706805 7.706806,-7.706805 4.256352,0 7.706807,3.450455 7.706807,7.706805 z"
         transform="translate(3.9092497,-7.7626512)" />
      <path
         transform="translate(15.301923,5.1378736)"
         sodipodi:type="arc"
         style="fill:#333333;fill-opacity:1;stroke:#000300;stroke-width:0;stroke-linejoin:round;stroke-miterlimit:4;stroke-opacity:1;stroke-dasharray:none;stroke-dashoffset:0"
         id="path3013-4"
         sodipodi:cx="52.383945"
         sodipodi:cy="102.64572"
         sodipodi:rx="7.7068062"
         sodipodi:ry="7.7068062"
         d="m 60.090752,102.64572 c 0,4.25635 -3.450455,7.70681 -7.706807,7.70681 -4.256351,0 -7.706806,-3.45046 -7.706806,-7.70681 0,-4.25635 3.450455,-7.706805 7.706806,-7.706805 4.256352,0 7.706807,3.450455 7.706807,7.706805 z" />
      <path
         transform="translate(-7.4834219,5.1378736)"
         sodipodi:type="arc"
         style="fill:#333333;fill-opacity:1;stroke:#000300;stroke-width:0;stroke-linejoin:round;stroke-miterlimit:4;stroke-opacity:1;stroke-dasharray:none;stroke-dashoffset:0"
         id="path3013-6"
         sodipodi:cx="52.383945"
         sodipodi:cy="102.64572"
         sodipodi:rx="7.7068062"
         sodipodi:ry="7.7068062"
         d="m 60.090752,102.64572 c 0,4.25635 -3.450455,7.70681 -7.706807,7.70681 -4.256351,0 -7.706806,-3.45046 -7.706806,-7.70681 0,-4.25635 3.450455,-7.706805 7.706806,-7.706805 4.256352,0 7.706807,3.450455 7.706807,7.706805 z" />
      <path
         transform="translate(26.694588,-7.7626512)"
         sodipodi:type="arc"
         style="fill:#333333;fill-opacity:1;stroke:#000300;stroke-width:0;stroke-linejoin:round;stroke-miterlimit:4;stroke-opacity:1;stroke-dasharray:none;stroke-dashoffset:0"
         id="path3013-2"
         sodipodi:cx="52.383945"
         sodipodi:cy="102.64572"
         sodipodi:rx="7.7068062"
         sodipodi:ry="7.7068062"
         d="m 60.090752,102.64572 c 0,4.25635 -3.450455,7.70681 -7.706807,7.70681 -4.256351,0 -7.706806,-3.45046 -7.706806,-7.70681 0,-4.25635 3.450455,-7.706805 7.706806,-7.706805 4.256352,0 7.706807,3.450455 7.706807,7.706805 z" />
      <rect
         style="fill:#333333;fill-opacity:1;stroke:#000300;stroke-width:0;stroke-linejoin:round;stroke-miterlimit:4;stroke-opacity:1;stroke-dasharray:none;stroke-dashoffset:0"
         id="rect3815-9"
         width="4.0209422"
         height="7.5951133"
         x="-17.523508"
         y="114.13153"
         transform="matrix(0.77819778,-0.62801928,0.62801928,0.77819778,0,0)" />
      <rect
         style="fill:#333333;fill-opacity:1;stroke:#000300;stroke-width:0;stroke-linejoin:round;stroke-miterlimit:4;stroke-opacity:1;stroke-dasharray:none;stroke-dashoffset:0"
         id="rect3815-3"
         width="4.0209422"
         height="7.5951133"
         x="101.69411"
         y="41.774693"
         transform="matrix(0.76675766,0.64193667,-0.64193667,0.76675766,0,0)" />
      <rect
         style="fill:#333333;fill-opacity:1;stroke:#000300;stroke-width:0;stroke-linejoin:round;stroke-miterlimit:4;stroke-opacity:1;stroke-dasharray:none;stroke-dashoffset:0"
         id="rect3815-7"
         width="4.0209422"
         height="7.5951133"
         x="120.09084"
         y="25.024841"
         transform="matrix(0.75776879,0.65252315,-0.65252315,0.75776879,0,0)" />
    </g>
  </g>
</svg>
